<svg viewBox="0 0 760 392" xmlns="http://www.w3.org/2000/svg" role="img" aria-label="Phasing 101：het germline 變異分到 HP1 / HP2"><title>Phasing 101：het germline 變異分到 HP1 / HP2</title><desc>示意 · 混合 reads 依攜帶的 germline allele 分到母本 HP1 / 父本 HP2 兩單倍型</desc><rect width="760" height="392" fill="#FAF9F5"/>
<text x="10" y="26" font-size="16" font-weight="800" fill="#141413">Phasing 101：het germline 變異分到 HP1 / HP2</text>
<text x="10" y="46" font-size="11.5" fill="#6B6B66">示意 · 混合 reads 依攜帶的 germline allele 分到母本 HP1 / 父本 HP2 兩單倍型</text>
<text x="10" y="125" font-size="10" font-weight="700" fill="#6B6B66">圖例</text>
<circle cx="56" cy="121" r="5.5" fill="#2F5597"/><text x="67" y="125" font-size="10.5" fill="#141413">Germline (HP1)</text>
<circle cx="224" cy="121" r="5.5" fill="#8FAADC"/><text x="235" y="125" font-size="10.5" fill="#141413">Germline (HP2)</text>
<line x1="10" y1="136" x2="750" y2="136" stroke="#eee"/>
<text x="138" y="174" font-size="10" font-weight="700" fill="#6B6B66" text-anchor="end">Germline</text>
<text x="138" y="190" font-size="10.5" font-weight="800" fill="#2F5597" text-anchor="end">HP1</text>
<text x="138" y="201" font-size="8" fill="#6B6B66" text-anchor="end">Maternal</text>
<polygon points="158,176 346,176 356,184 346,192 158,192" fill="#2F5597" opacity=".14"/>
<circle cx="252" cy="184" r="5.5" fill="#2F5597"/>
<polygon points="158,200 346,200 356,208 346,216 158,216" fill="#2F5597" opacity=".14"/>
<circle cx="252" cy="208" r="5.5" fill="#2F5597"/>
<polygon points="158,224 346,224 356,232 346,240 158,240" fill="#2F5597" opacity=".14"/>
<circle cx="252" cy="232" r="5.5" fill="#2F5597"/>
<text x="138" y="270" font-size="10.5" font-weight="800" fill="#8FAADC" text-anchor="end">HP2</text>
<text x="138" y="281" font-size="8" fill="#6B6B66" text-anchor="end">Paternal</text>
<polygon points="158,256 346,256 356,264 346,272 158,272" fill="#8FAADC" opacity=".14"/>
<circle cx="212" cy="264" r="5.5" fill="#8FAADC"/>
<polygon points="158,280 346,280 356,288 346,296 158,296" fill="#8FAADC" opacity=".14"/>
<circle cx="212" cy="288" r="5.5" fill="#8FAADC"/>
<polygon points="158,304 346,304 356,312 346,320 158,320" fill="#8FAADC" opacity=".14"/>
<circle cx="212" cy="312" r="5.5" fill="#8FAADC"/>
<line x1="10" y1="334" x2="750" y2="334" stroke="#eee"/>
<text x="10" y="356" font-size="9.5" fill="#6B6B66">※ 聚合數字皆 verified 真值（0 項，附 src 可 grep）；read 甲基點為示意（synthetic）。</text>
<text x="748" y="372" font-size="8.5" fill="#ccc" text-anchor="end">schematic reads = synthetic / 示意</text>
</svg>